<?xml version="1.0" encoding="utf-8" ?>
<svg baseProfile="full" height="433" version="1.1" width="464"
	xmlns="http://www.w3.org/2000/svg"
	xmlns:ev="http://www.w3.org/2001/xml-events"
	xmlns:xlink="http://www.w3.org/1999/xlink">
	<defs>
		<filter id="glow" x="-30%" y="-30%" width="160%" height="160%">
			<feGaussianBlur stdDeviation="5" result="blur" />
			<feComposite in="SourceGraphic" in2="blur" operator="over" />
		</filter>
	</defs>
	<polygon fill="#3899d9" stroke="#ffffff" stroke-width="1" points="168,360 229,393 295,357 302,350 216,303 201,312 201,340" filter="url(#glow)" />
	<polygon fill="#3899d9" stroke="#ffffff" stroke-width="1" points="145,264 104,287 103,323 156,353 190,333 190,288" filter="url(#glow)" />
	<polygon fill="#50a5e0" stroke="#ffffff" stroke-width="1" points="301,216 274,234 274,295 254,308 317,344 355,322 355,247" filter="url(#glow)" />
	<polygon fill="#64b1e8" stroke="#ffffff" stroke-width="1" points="154,220 264,284 264,206 219,180" filter="url(#glow)" />
	<polygon fill="#7bc8f7" stroke="#ffffff" stroke-width="1" points="144,93 102,118 103,175 152,204 197,176 196,124" filter="url(#glow)" />
	<polygon fill="#64b1e8" stroke="#ffffff" stroke-width="1" points="308,79 308,119 270,143 323,172 361,151 362,110" filter="url(#glow)" />
	<polygon fill="#50a5e0" stroke="#ffffff" stroke-width="1" points="165,82 258,136 296,116 296,72 240,40" filter="url(#glow)" />
</svg> 